<?xml version="1.0" encoding="UTF-8"?>
<svg xmlns="http://www.w3.org/2000/svg" viewBox="0 0 400 570" width="400" height="570">
  <rect width="400" height="570" fill="white"/>
  <!-- Outer border -->
  <rect x="8" y="8" width="384" height="554" fill="none" stroke="#000" stroke-width="3" rx="16"/>
  <!-- Inner border -->
  <rect x="16" y="16" width="368" height="538" fill="none" stroke="#000" stroke-width="1.5" rx="12" stroke-dasharray="6,4"/>
  <ellipse cx="200" cy="145" rx="55" ry="58" fill="none" stroke="#000" stroke-width="8"/>
  <rect x="140" y="195" width="120" height="130" rx="20" fill="none" stroke="#000" stroke-width="8"/>
  <rect x="155" y="205" width="90" height="60" rx="8" fill="none" stroke="#000" stroke-width="5"/>
  <!-- Arms -->
  <path d="M140,220 Q95,235 80,280 Q90,300 110,285 Q125,255 150,250" fill="none" stroke="#000" stroke-width="10" stroke-linecap="round"/>
  <path d="M260,220 Q305,235 320,280 Q310,300 290,285 Q275,255 250,250" fill="none" stroke="#000" stroke-width="10" stroke-linecap="round"/>
  <!-- Legs -->
  <line x1="170" y1="325" x2="160" y2="410" stroke="#000" stroke-width="10" stroke-linecap="round"/>
  <line x1="230" y1="325" x2="240" y2="410" stroke="#000" stroke-width="10" stroke-linecap="round"/>
  <ellipse cx="160" cy="415" rx="22" ry="12" fill="none" stroke="#000" stroke-width="6"/>
  <ellipse cx="240" cy="415" rx="22" ry="12" fill="none" stroke="#000" stroke-width="6"/>
  <!-- Visor -->
  <ellipse cx="200" cy="142" rx="33" ry="35" fill="none" stroke="#000" stroke-width="4"/>
  <!-- Flag patch -->
  <rect x="148" y="215" width="28" height="18" rx="2" fill="none" stroke="#000" stroke-width="3"/>
  <!-- Title -->
  <text x="200" y="538" font-family="Arial Black, sans-serif" font-size="20"
        text-anchor="middle" fill="#000" font-weight="900">Astronaut</text>
  <text x="200" y="558" font-family="Arial, sans-serif" font-size="13"
        text-anchor="middle" fill="#555">Blast off! 🚀</text>
  <!-- KidLearn branding -->
  <text x="380" y="566" font-family="Arial, sans-serif" font-size="9"
        text-anchor="end" fill="#ccc">KidLearn</text>
</svg>