<?xml version="1.0" encoding="UTF-8"?>
<svg xmlns="http://www.w3.org/2000/svg" viewBox="0 0 400 570" width="400" height="570">
  <rect width="400" height="570" fill="white"/>
  <!-- Outer border -->
  <rect x="8" y="8" width="384" height="554" fill="none" stroke="#000" stroke-width="3" rx="16"/>
  <!-- Inner border -->
  <rect x="16" y="16" width="368" height="538" fill="none" stroke="#000" stroke-width="1.5" rx="12" stroke-dasharray="6,4"/>
  <circle cx="280" cy="140" r="55" fill="none" stroke="#000" stroke-width="8"/>
  <path d="M240,180 Q160,230 80,290 Q120,280 145,310 Q130,280 170,295 Q155,265 200,280" fill="none" stroke="#000" stroke-width="5"/>
  <path d="M240,185 Q150,255 50,320 Q95,305 115,335 Q100,305 140,315 Q125,285 170,300" fill="none" stroke="#000" stroke-width="4" opacity="0.7"/>
  <circle cx="280" cy="140" r="28" fill="none" stroke="#000" stroke-width="4"/>
  <!-- Title -->
  <text x="200" y="538" font-family="Arial Black, sans-serif" font-size="20"
        text-anchor="middle" fill="#000" font-weight="900">Comet</text>
  <text x="200" y="558" font-family="Arial, sans-serif" font-size="13"
        text-anchor="middle" fill="#555">Blast off! 🚀</text>
  <!-- KidLearn branding -->
  <text x="380" y="566" font-family="Arial, sans-serif" font-size="9"
        text-anchor="end" fill="#ccc">KidLearn</text>
</svg>