<?xml version="1.0" encoding="UTF-8"?>
<svg xmlns="http://www.w3.org/2000/svg" viewBox="0 0 400 570" width="400" height="570">
  <rect width="400" height="570" fill="white"/>
  <!-- Outer border -->
  <rect x="8" y="8" width="384" height="554" fill="none" stroke="#000" stroke-width="3" rx="16"/>
  <!-- Inner border -->
  <rect x="16" y="16" width="368" height="538" fill="none" stroke="#000" stroke-width="1.5" rx="12" stroke-dasharray="6,4"/>
  <circle cx="43" cy="68" r="2" fill="none" stroke="#000" stroke-width="1.5"/><circle cx="349" cy="434" r="3" fill="none" stroke="#000" stroke-width="1.5"/><circle cx="51" cy="342" r="4" fill="none" stroke="#000" stroke-width="1.5"/><circle cx="45" cy="302" r="5" fill="none" stroke="#000" stroke-width="1.5"/><circle cx="271" cy="296" r="2" fill="none" stroke="#000" stroke-width="1.5"/><circle cx="197" cy="86" r="3" fill="none" stroke="#000" stroke-width="1.5"/><circle cx="171" cy="224" r="4" fill="none" stroke="#000" stroke-width="1.5"/><circle cx="365" cy="234" r="5" fill="none" stroke="#000" stroke-width="1.5"/><circle cx="87" cy="458" r="2" fill="none" stroke="#000" stroke-width="1.5"/><circle cx="165" cy="150" r="3" fill="none" stroke="#000" stroke-width="1.5"/><circle cx="267" cy="378" r="4" fill="none" stroke="#000" stroke-width="1.5"/><circle cx="221" cy="62" r="5" fill="none" stroke="#000" stroke-width="1.5"/><circle cx="239" cy="466" r="2" fill="none" stroke="#000" stroke-width="1.5"/><circle cx="209" cy="430" r="3" fill="none" stroke="#000" stroke-width="1.5"/><circle cx="115" cy="174" r="4" fill="none" stroke="#000" stroke-width="1.5"/><circle cx="133" cy="178" r="5" fill="none" stroke="#000" stroke-width="1.5"/><circle cx="295" cy="236" r="2" fill="none" stroke="#000" stroke-width="1.5"/><circle cx="189" cy="248" r="3" fill="none" stroke="#000" stroke-width="1.5"/><circle cx="119" cy="450" r="4" fill="none" stroke="#000" stroke-width="1.5"/><circle cx="345" cy="80" r="5" fill="none" stroke="#000" stroke-width="1.5"/><circle cx="343" cy="310" r="2" fill="none" stroke="#000" stroke-width="1.5"/><circle cx="213" cy="412" r="3" fill="none" stroke="#000" stroke-width="1.5"/><circle cx="215" cy="370" r="4" fill="none" stroke="#000" stroke-width="1.5"/><circle cx="349" cy="402" r="5" fill="none" stroke="#000" stroke-width="1.5"/><circle cx="363" cy="118" r="2" fill="none" stroke="#000" stroke-width="1.5"/><circle cx="193" cy="260" r="3" fill="none" stroke="#000" stroke-width="1.5"/><circle cx="183" cy="116" r="4" fill="none" stroke="#000" stroke-width="1.5"/><circle cx="297" cy="92" r="5" fill="none" stroke="#000" stroke-width="1.5"/><circle cx="343" cy="330" r="2" fill="none" stroke="#000" stroke-width="1.5"/><circle cx="349" cy="458" r="3" fill="none" stroke="#000" stroke-width="1.5"/><circle cx="327" cy="304" r="4" fill="none" stroke="#000" stroke-width="1.5"/><circle cx="217" cy="164" r="5" fill="none" stroke="#000" stroke-width="1.5"/><circle cx="363" cy="260" r="2" fill="none" stroke="#000" stroke-width="1.5"/><circle cx="73" cy="62" r="3" fill="none" stroke="#000" stroke-width="1.5"/><circle cx="119" cy="370" r="4" fill="none" stroke="#000" stroke-width="1.5"/><circle cx="97" cy="424" r="5" fill="none" stroke="#000" stroke-width="1.5"/><circle cx="191" cy="180" r="2" fill="none" stroke="#000" stroke-width="1.5"/><circle cx="209" cy="154" r="3" fill="none" stroke="#000" stroke-width="1.5"/><circle cx="227" cy="154" r="4" fill="none" stroke="#000" stroke-width="1.5"/><circle cx="365" cy="278" r="5" fill="none" stroke="#000" stroke-width="1.5"/><circle cx="79" cy="56" r="2" fill="none" stroke="#000" stroke-width="1.5"/><circle cx="121" cy="70" r="3" fill="none" stroke="#000" stroke-width="1.5"/><circle cx="343" cy="422" r="4" fill="none" stroke="#000" stroke-width="1.5"/><circle cx="49" cy="102" r="5" fill="none" stroke="#000" stroke-width="1.5"/><circle cx="303" cy="136" r="2" fill="none" stroke="#000" stroke-width="1.5"/><circle cx="301" cy="170" r="3" fill="none" stroke="#000" stroke-width="1.5"/><circle cx="51" cy="152" r="4" fill="none" stroke="#000" stroke-width="1.5"/><circle cx="181" cy="372" r="5" fill="none" stroke="#000" stroke-width="1.5"/><circle cx="211" cy="78" r="2" fill="none" stroke="#000" stroke-width="1.5"/><circle cx="149" cy="194" r="3" fill="none" stroke="#000" stroke-width="1.5"/><circle cx="131" cy="76" r="4" fill="none" stroke="#000" stroke-width="1.5"/><circle cx="33" cy="464" r="5" fill="none" stroke="#000" stroke-width="1.5"/><circle cx="43" cy="456" r="2" fill="none" stroke="#000" stroke-width="1.5"/><circle cx="233" cy="338" r="3" fill="none" stroke="#000" stroke-width="1.5"/><circle cx="355" cy="358" r="4" fill="none" stroke="#000" stroke-width="1.5"/><circle cx="41" cy="334" r="5" fill="none" stroke="#000" stroke-width="1.5"/><circle cx="183" cy="130" r="2" fill="none" stroke="#000" stroke-width="1.5"/><circle cx="269" cy="456" r="3" fill="none" stroke="#000" stroke-width="1.5"/><circle cx="143" cy="332" r="4" fill="none" stroke="#000" stroke-width="1.5"/><circle cx="201" cy="220" r="5" fill="none" stroke="#000" stroke-width="1.5"/>
  <!-- Galaxy spiral hints -->
  <path d="M200,250 Q280,180 320,200 Q360,220 340,270 Q310,330 240,340 Q160,350 120,300 Q70,240 110,180 Q150,120 220,130" fill="none" stroke="#000" stroke-width="3" stroke-dasharray="4,4"/>
  <!-- Title -->
  <text x="200" y="538" font-family="Arial Black, sans-serif" font-size="20"
        text-anchor="middle" fill="#000" font-weight="900">Milky Way</text>
  <text x="200" y="558" font-family="Arial, sans-serif" font-size="13"
        text-anchor="middle" fill="#555">Blast off! 🚀</text>
  <!-- KidLearn branding -->
  <text x="380" y="566" font-family="Arial, sans-serif" font-size="9"
        text-anchor="end" fill="#ccc">KidLearn</text>
</svg>