<?xml version="1.0" encoding="UTF-8"?>
<svg xmlns="http://www.w3.org/2000/svg" viewBox="0 0 400 570" width="400" height="570">
  <rect width="400" height="570" fill="white"/>
  <!-- Outer border -->
  <rect x="8" y="8" width="384" height="554" fill="none" stroke="#000" stroke-width="3" rx="16"/>
  <!-- Inner border -->
  <rect x="16" y="16" width="368" height="538" fill="none" stroke="#000" stroke-width="1.5" rx="12" stroke-dasharray="6,4"/>
  <path d="M200,80 Q230,80 245,130 L260,330 Q200,350 140,330 L155,130 Q170,80 200,80 Z" fill="none" stroke="#000" stroke-width="8"/>
  <path d="M140,310 Q100,330 85,380 L140,360 Z" fill="none" stroke="#000" stroke-width="7"/>
  <path d="M260,310 Q300,330 315,380 L260,360 Z" fill="none" stroke="#000" stroke-width="7"/>
  <circle cx="200" cy="195" r="35" fill="none" stroke="#000" stroke-width="6"/>
  <ellipse cx="200" cy="360" rx="30" ry="45" fill="none" stroke="#000" stroke-width="5"/>
  <!-- Flames -->
  <path d="M175,400 Q185,440 200,430 Q215,440 225,400" fill="none" stroke="#000" stroke-width="5" stroke-linecap="round"/>
  <path d="M185,400 Q192,455 200,450 Q208,455 215,400" fill="none" stroke="#000" stroke-width="4"/>
  <!-- Title -->
  <text x="200" y="538" font-family="Arial Black, sans-serif" font-size="20"
        text-anchor="middle" fill="#000" font-weight="900">Rocket Ship</text>
  <text x="200" y="558" font-family="Arial, sans-serif" font-size="13"
        text-anchor="middle" fill="#555">Blast off! 🚀</text>
  <!-- KidLearn branding -->
  <text x="380" y="566" font-family="Arial, sans-serif" font-size="9"
        text-anchor="end" fill="#ccc">KidLearn</text>
</svg>