<?xml version="1.0" encoding="UTF-8"?>
<svg xmlns="http://www.w3.org/2000/svg" viewBox="0 0 400 570" width="400" height="570">
  <rect width="400" height="570" fill="white"/>
  <!-- Outer border -->
  <rect x="8" y="8" width="384" height="554" fill="none" stroke="#000" stroke-width="3" rx="16"/>
  <!-- Inner border -->
  <rect x="16" y="16" width="368" height="538" fill="none" stroke="#000" stroke-width="1.5" rx="12" stroke-dasharray="6,4"/>
  <ellipse cx="200" cy="245" rx="155" ry="50" fill="none" stroke="#000" stroke-width="8"/>
  <path d="M120,245 Q120,170 200,165 Q280,170 280,245" fill="none" stroke="#000" stroke-width="8"/>
  <ellipse cx="200" cy="188" rx="50" ry="38" fill="none" stroke="#000" stroke-width="5"/>
  <!-- Lights -->
  <circle cx="120" cy="255" r="12" fill="none" stroke="#000" stroke-width="4"/>
  <circle cx="160" cy="268" r="12" fill="none" stroke="#000" stroke-width="4"/>
  <circle cx="200" cy="272" r="12" fill="none" stroke="#000" stroke-width="4"/>
  <circle cx="240" cy="268" r="12" fill="none" stroke="#000" stroke-width="4"/>
  <circle cx="280" cy="255" r="12" fill="none" stroke="#000" stroke-width="4"/>
  <!-- Beam -->
  <path d="M155,295 L100,410 M245,295 L300,410" stroke="#000" stroke-width="4" stroke-dasharray="8,6"/>
  <!-- Title -->
  <text x="200" y="538" font-family="Arial Black, sans-serif" font-size="20"
        text-anchor="middle" fill="#000" font-weight="900">UFO</text>
  <text x="200" y="558" font-family="Arial, sans-serif" font-size="13"
        text-anchor="middle" fill="#555">Blast off! 🚀</text>
  <!-- KidLearn branding -->
  <text x="380" y="566" font-family="Arial, sans-serif" font-size="9"
        text-anchor="end" fill="#ccc">KidLearn</text>
</svg>