<?xml version="1.0" encoding="UTF-8"?>
<svg xmlns="http://www.w3.org/2000/svg" viewBox="0 0 400 570" width="400" height="570">
  <rect width="400" height="570" fill="white"/>
  <!-- Outer border -->
  <rect x="8" y="8" width="384" height="554" fill="none" stroke="#000" stroke-width="3" rx="16"/>
  <!-- Inner border -->
  <rect x="16" y="16" width="368" height="538" fill="none" stroke="#000" stroke-width="1.5" rx="12" stroke-dasharray="6,4"/>
  <path d="M200,210 Q120,100 80,150 Q40,200 80,260 Q120,320 200,270 Z" fill="none" stroke="#000" stroke-width="7"/>
  <path d="M200,210 Q280,100 320,150 Q360,200 320,260 Q280,320 200,270 Z" fill="none" stroke="#000" stroke-width="7"/>
  <path d="M200,230 Q150,280 130,360 Q140,390 160,370 Q185,340 200,350 Q215,340 240,370 Q260,390 270,360 Q250,280 200,230 Z" fill="none" stroke="#000" stroke-width="7"/>
  <ellipse cx="200" cy="240" rx="10" ry="70" fill="none" stroke="#000" stroke-width="6"/>
  <line x1="195" y1="180" x2="165" y2="130" stroke="#000" stroke-width="4" stroke-linecap="round"/>
  <line x1="205" y1="180" x2="235" y2="130" stroke="#000" stroke-width="4" stroke-linecap="round"/>
  <circle cx="163" cy="126" r="6" fill="none" stroke="#000" stroke-width="3"/>
  <circle cx="237" cy="126" r="6" fill="none" stroke="#000" stroke-width="3"/>
  <!-- Title -->
  <text x="200" y="538" font-family="Arial Black, sans-serif" font-size="20"
        text-anchor="middle" fill="#000" font-weight="900">Butterfly</text>
  <text x="200" y="558" font-family="Arial, sans-serif" font-size="13"
        text-anchor="middle" fill="#555">Colour me in!</text>
  <!-- KidLearn branding -->
  <text x="380" y="566" font-family="Arial, sans-serif" font-size="9"
        text-anchor="end" fill="#ccc">KidLearn</text>
</svg>