<?xml version="1.0" encoding="UTF-8"?>
<svg xmlns="http://www.w3.org/2000/svg" viewBox="0 0 400 570" width="400" height="570">
  <rect width="400" height="570" fill="white"/>
  <!-- Outer border -->
  <rect x="8" y="8" width="384" height="554" fill="none" stroke="#000" stroke-width="3" rx="16"/>
  <!-- Inner border -->
  <rect x="16" y="16" width="368" height="538" fill="none" stroke="#000" stroke-width="1.5" rx="12" stroke-dasharray="6,4"/>
  <line x1="200" y1="345" x2="200" y2="490" stroke="#000" stroke-width="8" stroke-linecap="round"/>
  <path d="M200,420 Q160,390 145,360" fill="none" stroke="#000" stroke-width="6" stroke-linecap="round"/>
  <ellipse cx="140" cy="353" rx="22" ry="13" fill="none" stroke="#000" stroke-width="4" transform="rotate(-30 140 353)"/>
  <ellipse cx="280.0" cy="205.0" rx="35" ry="22" fill="none" stroke="#000" stroke-width="5" transform="rotate(0 280.0 205.0)"/><ellipse cx="256.6" cy="261.6" rx="35" ry="22" fill="none" stroke="#000" stroke-width="5" transform="rotate(45 256.6 261.6)"/><ellipse cx="200.0" cy="285.0" rx="35" ry="22" fill="none" stroke="#000" stroke-width="5" transform="rotate(90 200.0 285.0)"/><ellipse cx="143.4" cy="261.6" rx="35" ry="22" fill="none" stroke="#000" stroke-width="5" transform="rotate(135 143.4 261.6)"/><ellipse cx="120.0" cy="205.0" rx="35" ry="22" fill="none" stroke="#000" stroke-width="5" transform="rotate(180 120.0 205.0)"/><ellipse cx="143.4" cy="148.4" rx="35" ry="22" fill="none" stroke="#000" stroke-width="5" transform="rotate(225 143.4 148.4)"/><ellipse cx="200.0" cy="125.0" rx="35" ry="22" fill="none" stroke="#000" stroke-width="5" transform="rotate(270 200.0 125.0)"/><ellipse cx="256.6" cy="148.4" rx="35" ry="22" fill="none" stroke="#000" stroke-width="5" transform="rotate(315 256.6 148.4)"/>
  <circle cx="200" cy="205" r="42" fill="none" stroke="#000" stroke-width="8"/>
  <!-- Title -->
  <text x="200" y="538" font-family="Arial Black, sans-serif" font-size="20"
        text-anchor="middle" fill="#000" font-weight="900">Sunflower</text>
  <text x="200" y="558" font-family="Arial, sans-serif" font-size="13"
        text-anchor="middle" fill="#555">Colour me in!</text>
  <!-- KidLearn branding -->
  <text x="380" y="566" font-family="Arial, sans-serif" font-size="9"
        text-anchor="end" fill="#ccc">KidLearn</text>
</svg>