<?xml version="1.0" encoding="UTF-8"?>
<svg xmlns="http://www.w3.org/2000/svg" viewBox="0 0 400 570" width="400" height="570">
  <rect width="400" height="570" fill="white"/>
  <!-- Outer border -->
  <rect x="8" y="8" width="384" height="554" fill="none" stroke="#000" stroke-width="3" rx="16"/>
  <!-- Inner border -->
  <rect x="16" y="16" width="368" height="538" fill="none" stroke="#000" stroke-width="1.5" rx="12" stroke-dasharray="6,4"/>
  <path d="M200,460 Q200,460 200,460 C200,460 80,340 80,220 C80,130 140,70 200,60 C260,70 320,130 320,220 C320,340 200,460 200,460 Z" fill="none" stroke="#000" stroke-width="8"/>
  <line x1="200" y1="460" x2="200" y2="90" stroke="#000" stroke-width="5"/>
  <line x1="200" y1="200" x2="130" y2="150" stroke="#000" stroke-width="3.5"/>
  <line x1="200" y1="200" x2="270" y2="150" stroke="#000" stroke-width="3.5"/>
  <line x1="200" y1="280" x2="145" y2="250" stroke="#000" stroke-width="3.5"/>
  <line x1="200" y1="280" x2="255" y2="250" stroke="#000" stroke-width="3.5"/>
  <!-- Title -->
  <text x="200" y="538" font-family="Arial Black, sans-serif" font-size="20"
        text-anchor="middle" fill="#000" font-weight="900">Leaf</text>
  <text x="200" y="558" font-family="Arial, sans-serif" font-size="13"
        text-anchor="middle" fill="#555">Colour me in!</text>
  <!-- KidLearn branding -->
  <text x="380" y="566" font-family="Arial, sans-serif" font-size="9"
        text-anchor="end" fill="#ccc">KidLearn</text>
</svg>