<?xml version="1.0" encoding="UTF-8"?>
<svg xmlns="http://www.w3.org/2000/svg" viewBox="0 0 400 570" width="400" height="570">
  <rect width="400" height="570" fill="white"/>
  <!-- Outer border -->
  <rect x="8" y="8" width="384" height="554" fill="none" stroke="#000" stroke-width="3" rx="16"/>
  <!-- Inner border -->
  <rect x="16" y="16" width="368" height="538" fill="none" stroke="#000" stroke-width="1.5" rx="12" stroke-dasharray="6,4"/>
  <path d="M50,280 A150,150 0 0,1 350,280" fill="none" stroke="#000" stroke-width="18"/>
  <path d="M70,280 A130,130 0 0,1 330,280" fill="none" stroke="#000" stroke-width="18"/>
  <path d="M90,280 A110,110 0 0,1 310,280" fill="none" stroke="#000" stroke-width="18"/>
  <path d="M110,280 A90,90 0 0,1 290,280" fill="none" stroke="#000" stroke-width="18"/>
  <path d="M130,280 A70,70 0 0,1 270,280" fill="none" stroke="#000" stroke-width="18"/>
  <circle cx="95" cy="300" r="30" fill="none" stroke="#000" stroke-width="6"/>
  <circle cx="305" cy="300" r="30" fill="none" stroke="#000" stroke-width="6"/>
  <text x="200" y="380" font-family="Arial, sans-serif" font-size="14" text-anchor="middle" fill="#000">Each stripe is a different colour!</text>
  <!-- Title -->
  <text x="200" y="538" font-family="Arial Black, sans-serif" font-size="20"
        text-anchor="middle" fill="#000" font-weight="900">Rainbow</text>
  <text x="200" y="558" font-family="Arial, sans-serif" font-size="13"
        text-anchor="middle" fill="#555">Colour me in!</text>
  <!-- KidLearn branding -->
  <text x="380" y="566" font-family="Arial, sans-serif" font-size="9"
        text-anchor="end" fill="#ccc">KidLearn</text>
</svg>