<?xml version="1.0" encoding="UTF-8"?>
<svg xmlns="http://www.w3.org/2000/svg" viewBox="0 0 400 570" width="400" height="570">
  <rect width="400" height="570" fill="white"/>
  <!-- Outer border -->
  <rect x="8" y="8" width="384" height="554" fill="none" stroke="#000" stroke-width="3" rx="16"/>
  <!-- Inner border -->
  <rect x="16" y="16" width="368" height="538" fill="none" stroke="#000" stroke-width="1.5" rx="12" stroke-dasharray="6,4"/>
  <line x1="200" y1="215" x2="345.0" y2="215.0" stroke="#000" stroke-width="6" stroke-linecap="round"/>
    <line x1="280.0" y1="215.0" x2="286.7" y2="274.3" stroke="#000" stroke-width="4" stroke-linecap="round"/>
    <line x1="280.0" y1="215.0" x2="286.7" y2="155.7" stroke="#000" stroke-width="4" stroke-linecap="round"/><line x1="200" y1="215" x2="272.5" y2="340.6" stroke="#000" stroke-width="6" stroke-linecap="round"/>
    <line x1="240.0" y1="284.3" x2="192.0" y2="319.7" stroke="#000" stroke-width="4" stroke-linecap="round"/>
    <line x1="240.0" y1="284.3" x2="294.7" y2="260.4" stroke="#000" stroke-width="4" stroke-linecap="round"/><line x1="200" y1="215" x2="127.5" y2="340.6" stroke="#000" stroke-width="6" stroke-linecap="round"/>
    <line x1="160.0" y1="284.3" x2="105.3" y2="260.4" stroke="#000" stroke-width="4" stroke-linecap="round"/>
    <line x1="160.0" y1="284.3" x2="208.0" y2="319.7" stroke="#000" stroke-width="4" stroke-linecap="round"/><line x1="200" y1="215" x2="55.0" y2="215.0" stroke="#000" stroke-width="6" stroke-linecap="round"/>
    <line x1="120.0" y1="215.0" x2="113.3" y2="155.7" stroke="#000" stroke-width="4" stroke-linecap="round"/>
    <line x1="120.0" y1="215.0" x2="113.3" y2="274.3" stroke="#000" stroke-width="4" stroke-linecap="round"/><line x1="200" y1="215" x2="127.5" y2="89.4" stroke="#000" stroke-width="6" stroke-linecap="round"/>
    <line x1="160.0" y1="145.7" x2="208.0" y2="110.3" stroke="#000" stroke-width="4" stroke-linecap="round"/>
    <line x1="160.0" y1="145.7" x2="105.3" y2="169.6" stroke="#000" stroke-width="4" stroke-linecap="round"/><line x1="200" y1="215" x2="272.5" y2="89.4" stroke="#000" stroke-width="6" stroke-linecap="round"/>
    <line x1="240.0" y1="145.7" x2="294.7" y2="169.6" stroke="#000" stroke-width="4" stroke-linecap="round"/>
    <line x1="240.0" y1="145.7" x2="192.0" y2="110.3" stroke="#000" stroke-width="4" stroke-linecap="round"/><circle cx="200" cy="215" r="14" fill="none" stroke="#000" stroke-width="5"/>
  <!-- Title -->
  <text x="200" y="538" font-family="Arial Black, sans-serif" font-size="20"
        text-anchor="middle" fill="#000" font-weight="900">Snowflake</text>
  <text x="200" y="558" font-family="Arial, sans-serif" font-size="13"
        text-anchor="middle" fill="#555">Colour me in!</text>
  <!-- KidLearn branding -->
  <text x="380" y="566" font-family="Arial, sans-serif" font-size="9"
        text-anchor="end" fill="#ccc">KidLearn</text>
</svg>