<?xml version="1.0" encoding="UTF-8"?>
<svg xmlns="http://www.w3.org/2000/svg" viewBox="0 0 400 570" width="400" height="570">
  <rect width="400" height="570" fill="white"/>
  <!-- Outer border -->
  <rect x="8" y="8" width="384" height="554" fill="none" stroke="#000" stroke-width="3" rx="16"/>
  <!-- Inner border -->
  <rect x="16" y="16" width="368" height="538" fill="none" stroke="#000" stroke-width="1.5" rx="12" stroke-dasharray="6,4"/>
  <line x1="305.0" y1="210.0" x2="345.0" y2="210.0" stroke="#000" stroke-width="6" stroke-linecap="round"/><line x1="290.9" y1="262.5" x2="325.6" y2="282.5" stroke="#000" stroke-width="6" stroke-linecap="round"/><line x1="252.5" y1="300.9" x2="272.5" y2="335.6" stroke="#000" stroke-width="6" stroke-linecap="round"/><line x1="200.0" y1="315.0" x2="200.0" y2="355.0" stroke="#000" stroke-width="6" stroke-linecap="round"/><line x1="147.5" y1="300.9" x2="127.5" y2="335.6" stroke="#000" stroke-width="6" stroke-linecap="round"/><line x1="109.1" y1="262.5" x2="74.4" y2="282.5" stroke="#000" stroke-width="6" stroke-linecap="round"/><line x1="95.0" y1="210.0" x2="55.0" y2="210.0" stroke="#000" stroke-width="6" stroke-linecap="round"/><line x1="109.1" y1="157.5" x2="74.4" y2="137.5" stroke="#000" stroke-width="6" stroke-linecap="round"/><line x1="147.5" y1="119.1" x2="127.5" y2="84.4" stroke="#000" stroke-width="6" stroke-linecap="round"/><line x1="200.0" y1="105.0" x2="200.0" y2="65.0" stroke="#000" stroke-width="6" stroke-linecap="round"/><line x1="252.5" y1="119.1" x2="272.5" y2="84.4" stroke="#000" stroke-width="6" stroke-linecap="round"/><line x1="290.9" y1="157.5" x2="325.6" y2="137.5" stroke="#000" stroke-width="6" stroke-linecap="round"/><circle cx="200" cy="210" r="95" fill="none" stroke="#000" stroke-width="9"/>
  <circle cx="172" cy="195" r="10" fill="none" stroke="#000" stroke-width="3"/>
  <circle cx="228" cy="195" r="10" fill="none" stroke="#000" stroke-width="3"/>
  <path d="M170,230 Q200,255 230,230" fill="none" stroke="#000" stroke-width="4" stroke-linecap="round"/>
  <!-- Title -->
  <text x="200" y="538" font-family="Arial Black, sans-serif" font-size="20"
        text-anchor="middle" fill="#000" font-weight="900">The Sun</text>
  <text x="200" y="558" font-family="Arial, sans-serif" font-size="13"
        text-anchor="middle" fill="#555">Colour me in!</text>
  <!-- KidLearn branding -->
  <text x="380" y="566" font-family="Arial, sans-serif" font-size="9"
        text-anchor="end" fill="#ccc">KidLearn</text>
</svg>