<?xml version="1.0" encoding="UTF-8"?>
<svg xmlns="http://www.w3.org/2000/svg" viewBox="0 0 400 570" width="400" height="570">
  <rect width="400" height="570" fill="white"/>
  <!-- Outer border -->
  <rect x="8" y="8" width="384" height="554" fill="none" stroke="#000" stroke-width="3" rx="16"/>
  <!-- Inner border -->
  <rect x="16" y="16" width="368" height="538" fill="none" stroke="#000" stroke-width="1.5" rx="12" stroke-dasharray="6,4"/>
  <circle cx="200" cy="225" r="38" fill="none" stroke="#000" stroke-width="4"/><line x1="220.0" y1="225.0" x2="238.0" y2="225.0" stroke="#000" stroke-width="2"/><line x1="214.1" y1="239.1" x2="226.9" y2="251.9" stroke="#000" stroke-width="2"/><line x1="200.0" y1="245.0" x2="200.0" y2="263.0" stroke="#000" stroke-width="2"/><line x1="185.9" y1="239.1" x2="173.1" y2="251.9" stroke="#000" stroke-width="2"/><line x1="180.0" y1="225.0" x2="162.0" y2="225.0" stroke="#000" stroke-width="2"/><line x1="185.9" y1="210.9" x2="173.1" y2="198.1" stroke="#000" stroke-width="2"/><line x1="200.0" y1="205.0" x2="200.0" y2="187.0" stroke="#000" stroke-width="2"/><line x1="214.1" y1="210.9" x2="226.9" y2="198.1" stroke="#000" stroke-width="2"/><circle cx="200" cy="225" r="76" fill="none" stroke="#000" stroke-width="2"/><circle cx="267.0" cy="225.0" r="5" fill="none" stroke="#000" stroke-width="1.5"/><circle cx="254.2" cy="264.4" r="5" fill="none" stroke="#000" stroke-width="1.5"/><circle cx="220.7" cy="288.7" r="5" fill="none" stroke="#000" stroke-width="1.5"/><circle cx="179.3" cy="288.7" r="5" fill="none" stroke="#000" stroke-width="1.5"/><circle cx="145.8" cy="264.4" r="5" fill="none" stroke="#000" stroke-width="1.5"/><circle cx="133.0" cy="225.0" r="5" fill="none" stroke="#000" stroke-width="1.5"/><circle cx="145.8" cy="185.6" r="5" fill="none" stroke="#000" stroke-width="1.5"/><circle cx="179.3" cy="161.3" r="5" fill="none" stroke="#000" stroke-width="1.5"/><circle cx="220.7" cy="161.3" r="5" fill="none" stroke="#000" stroke-width="1.5"/><circle cx="254.2" cy="185.6" r="5" fill="none" stroke="#000" stroke-width="1.5"/><circle cx="200" cy="225" r="114" fill="none" stroke="#000" stroke-width="2"/><line x1="296.0" y1="225.0" x2="314.0" y2="225.0" stroke="#000" stroke-width="2"/><line x1="283.1" y1="273.0" x2="298.7" y2="282.0" stroke="#000" stroke-width="2"/><line x1="248.0" y1="308.1" x2="257.0" y2="323.7" stroke="#000" stroke-width="2"/><line x1="200.0" y1="321.0" x2="200.0" y2="339.0" stroke="#000" stroke-width="2"/><line x1="152.0" y1="308.1" x2="143.0" y2="323.7" stroke="#000" stroke-width="2"/><line x1="116.9" y1="273.0" x2="101.3" y2="282.0" stroke="#000" stroke-width="2"/><line x1="104.0" y1="225.0" x2="86.0" y2="225.0" stroke="#000" stroke-width="2"/><line x1="116.9" y1="177.0" x2="101.3" y2="168.0" stroke="#000" stroke-width="2"/><line x1="152.0" y1="141.9" x2="143.0" y2="126.3" stroke="#000" stroke-width="2"/><line x1="200.0" y1="129.0" x2="200.0" y2="111.0" stroke="#000" stroke-width="2"/><line x1="248.0" y1="141.9" x2="257.0" y2="126.3" stroke="#000" stroke-width="2"/><line x1="283.1" y1="177.0" x2="298.7" y2="168.0" stroke="#000" stroke-width="2"/><circle cx="200" cy="225" r="152" fill="none" stroke="#000" stroke-width="2"/><circle cx="343.0" cy="225.0" r="5" fill="none" stroke="#000" stroke-width="1.5"/><circle cx="328.8" cy="287.0" r="5" fill="none" stroke="#000" stroke-width="1.5"/><circle cx="289.2" cy="336.8" r="5" fill="none" stroke="#000" stroke-width="1.5"/><circle cx="231.8" cy="364.4" r="5" fill="none" stroke="#000" stroke-width="1.5"/><circle cx="168.2" cy="364.4" r="5" fill="none" stroke="#000" stroke-width="1.5"/><circle cx="110.8" cy="336.8" r="5" fill="none" stroke="#000" stroke-width="1.5"/><circle cx="71.2" cy="287.0" r="5" fill="none" stroke="#000" stroke-width="1.5"/><circle cx="57.0" cy="225.0" r="5" fill="none" stroke="#000" stroke-width="1.5"/><circle cx="71.2" cy="163.0" r="5" fill="none" stroke="#000" stroke-width="1.5"/><circle cx="110.8" cy="113.2" r="5" fill="none" stroke="#000" stroke-width="1.5"/><circle cx="168.2" cy="85.6" r="5" fill="none" stroke="#000" stroke-width="1.5"/><circle cx="231.8" cy="85.6" r="5" fill="none" stroke="#000" stroke-width="1.5"/><circle cx="289.2" cy="113.2" r="5" fill="none" stroke="#000" stroke-width="1.5"/><circle cx="328.8" cy="163.0" r="5" fill="none" stroke="#000" stroke-width="1.5"/><circle cx="200" cy="225" r="190" fill="none" stroke="#000" stroke-width="2"/><line x1="372.0" y1="225.0" x2="390.0" y2="225.0" stroke="#000" stroke-width="2"/><line x1="358.9" y1="290.8" x2="375.5" y2="297.7" stroke="#000" stroke-width="2"/><line x1="321.6" y1="346.6" x2="334.4" y2="359.4" stroke="#000" stroke-width="2"/><line x1="265.8" y1="383.9" x2="272.7" y2="400.5" stroke="#000" stroke-width="2"/><line x1="200.0" y1="397.0" x2="200.0" y2="415.0" stroke="#000" stroke-width="2"/><line x1="134.2" y1="383.9" x2="127.3" y2="400.5" stroke="#000" stroke-width="2"/><line x1="78.4" y1="346.6" x2="65.6" y2="359.4" stroke="#000" stroke-width="2"/><line x1="41.1" y1="290.8" x2="24.5" y2="297.7" stroke="#000" stroke-width="2"/><line x1="28.0" y1="225.0" x2="10.0" y2="225.0" stroke="#000" stroke-width="2"/><line x1="41.1" y1="159.2" x2="24.5" y2="152.3" stroke="#000" stroke-width="2"/><line x1="78.4" y1="103.4" x2="65.6" y2="90.6" stroke="#000" stroke-width="2"/><line x1="134.2" y1="66.1" x2="127.3" y2="49.5" stroke="#000" stroke-width="2"/><line x1="200.0" y1="53.0" x2="200.0" y2="35.0" stroke="#000" stroke-width="2"/><line x1="265.8" y1="66.1" x2="272.7" y2="49.5" stroke="#000" stroke-width="2"/><line x1="321.6" y1="103.4" x2="334.4" y2="90.6" stroke="#000" stroke-width="2"/><line x1="358.9" y1="159.2" x2="375.5" y2="152.3" stroke="#000" stroke-width="2"/><circle cx="200" cy="225" r="12" fill="none" stroke="#000" stroke-width="3"/><circle cx="208.0" cy="225.0" r="3" fill="#000"/><circle cx="205.7" cy="230.7" r="3" fill="#000"/><circle cx="200.0" cy="233.0" r="3" fill="#000"/><circle cx="194.3" cy="230.7" r="3" fill="#000"/><circle cx="192.0" cy="225.0" r="3" fill="#000"/><circle cx="194.3" cy="219.3" r="3" fill="#000"/><circle cx="200.0" cy="217.0" r="3" fill="#000"/><circle cx="205.7" cy="219.3" r="3" fill="#000"/>
  <!-- Title -->
  <text x="200" y="538" font-family="Arial Black, sans-serif" font-size="20"
        text-anchor="middle" fill="#000" font-weight="900">Pattern 4</text>
  <text x="200" y="558" font-family="Arial, sans-serif" font-size="13"
        text-anchor="middle" fill="#555">Fill each section with colour</text>
  <!-- KidLearn branding -->
  <text x="380" y="566" font-family="Arial, sans-serif" font-size="9"
        text-anchor="end" fill="#ccc">KidLearn</text>
</svg>