<?xml version="1.0" encoding="UTF-8"?>
<svg xmlns="http://www.w3.org/2000/svg" viewBox="0 0 400 570" width="400" height="570">
  <rect width="400" height="570" fill="white"/>
  <!-- Outer border -->
  <rect x="8" y="8" width="384" height="554" fill="none" stroke="#000" stroke-width="3" rx="16"/>
  <!-- Inner border -->
  <rect x="16" y="16" width="368" height="538" fill="none" stroke="#000" stroke-width="1.5" rx="12" stroke-dasharray="6,4"/>
  
      <circle cx="40" cy="40" r="6" fill="none" stroke="#000" stroke-width="2"/>
      <circle cx="360" cy="40" r="6" fill="none" stroke="#000" stroke-width="2"/>
      <circle cx="40" cy="530" r="6" fill="none" stroke="#000" stroke-width="2"/>
      <circle cx="360" cy="530" r="6" fill="none" stroke="#000" stroke-width="2"/>
    
      <text x="200" y="340" font-family="Arial Black, sans-serif" font-size="280" font-weight="900"
            text-anchor="middle" fill="none" stroke="#000" stroke-width="10" stroke-linejoin="round">I</text>
      <text x="200" y="340" font-family="Arial Black, sans-serif" font-size="280" font-weight="900"
            text-anchor="middle" fill="none" stroke="#fff" stroke-width="4">I</text>
    <circle cx="355.0" cy="180.0" r="10" fill="none" stroke="#000" stroke-width="2"/>
      <circle cx="309.6" cy="215.4" r="10" fill="none" stroke="#000" stroke-width="2"/>
      <circle cx="200.0" cy="230.0" r="10" fill="none" stroke="#000" stroke-width="2"/>
      <circle cx="90.4" cy="215.4" r="10" fill="none" stroke="#000" stroke-width="2"/>
      <circle cx="45.0" cy="180.0" r="10" fill="none" stroke="#000" stroke-width="2"/>
      <circle cx="90.4" cy="144.6" r="10" fill="none" stroke="#000" stroke-width="2"/>
      <circle cx="200.0" cy="130.0" r="10" fill="none" stroke="#000" stroke-width="2"/>
      <circle cx="309.6" cy="144.6" r="10" fill="none" stroke="#000" stroke-width="2"/>
  <!-- Title -->
  <text x="200" y="538" font-family="Arial Black, sans-serif" font-size="20"
        text-anchor="middle" fill="#000" font-weight="900">I is for Iguana</text>
  <text x="200" y="558" font-family="Arial, sans-serif" font-size="13"
        text-anchor="middle" fill="#555">Colour me in!</text>
  <!-- KidLearn branding -->
  <text x="380" y="566" font-family="Arial, sans-serif" font-size="9"
        text-anchor="end" fill="#ccc">KidLearn</text>
</svg>