<?xml version="1.0" encoding="UTF-8"?>
<svg xmlns="http://www.w3.org/2000/svg" viewBox="0 0 400 570" width="400" height="570">
  <rect width="400" height="570" fill="white"/>
  <!-- Outer border -->
  <rect x="8" y="8" width="384" height="554" fill="none" stroke="#000" stroke-width="3" rx="16"/>
  <!-- Inner border -->
  <rect x="16" y="16" width="368" height="538" fill="none" stroke="#000" stroke-width="1.5" rx="12" stroke-dasharray="6,4"/>
  <ellipse cx="200" cy="250" rx="85" ry="60" fill="none" stroke="#000" stroke-width="8"/>
  <!-- Claws -->
  <path d="M115,230 Q80,200 55,210 Q45,235 60,250 Q75,260 90,245" fill="none" stroke="#000" stroke-width="7"/>
  <path d="M285,230 Q320,200 345,210 Q355,235 340,250 Q325,260 310,245" fill="none" stroke="#000" stroke-width="7"/>
  <!-- Legs -->
  <line x1="135" y1="270" x2="100" y2="320" stroke="#000" stroke-width="6" stroke-linecap="round"/>
  <line x1="155" y1="295" x2="130" y2="345" stroke="#000" stroke-width="6" stroke-linecap="round"/>
  <line x1="245" y1="270" x2="280" y2="320" stroke="#000" stroke-width="6" stroke-linecap="round"/>
  <line x1="265" y1="295" x2="290" y2="345" stroke="#000" stroke-width="6" stroke-linecap="round"/>
  <!-- Eyes -->
  <circle cx="170" cy="210" r="12" fill="none" stroke="#000" stroke-width="4"/>
  <circle cx="230" cy="210" r="12" fill="none" stroke="#000" stroke-width="4"/>
  <circle cx="173" cy="207" r="5" fill="#000"/>
  <circle cx="233" cy="207" r="5" fill="#000"/>
  <!-- Title -->
  <text x="200" y="538" font-family="Arial Black, sans-serif" font-size="20"
        text-anchor="middle" fill="#000" font-weight="900">Crab</text>
  <text x="200" y="558" font-family="Arial, sans-serif" font-size="13"
        text-anchor="middle" fill="#555">Deep sea adventure!</text>
  <!-- KidLearn branding -->
  <text x="380" y="566" font-family="Arial, sans-serif" font-size="9"
        text-anchor="end" fill="#ccc">KidLearn</text>
</svg>