<?xml version="1.0" encoding="UTF-8"?>
<svg xmlns="http://www.w3.org/2000/svg" viewBox="0 0 400 570" width="400" height="570">
  <rect width="400" height="570" fill="white"/>
  <!-- Outer border -->
  <rect x="8" y="8" width="384" height="554" fill="none" stroke="#000" stroke-width="3" rx="16"/>
  <!-- Inner border -->
  <rect x="16" y="16" width="368" height="538" fill="none" stroke="#000" stroke-width="1.5" rx="12" stroke-dasharray="6,4"/>
  <path d="M340,230 Q340,165 260,155 Q180,150 110,180 Q55,210 50,250 Q55,290 110,305 Q185,320 265,305 Q340,290 340,230 Z" fill="none" stroke="#000" stroke-width="8"/>
  <path d="M340,215 Q370,185 385,195 Q380,215 340,245" fill="none" stroke="#000" stroke-width="7"/>
  <path d="M220,153 Q215,110 230,95 Q250,110 245,153" fill="none" stroke="#000" stroke-width="7"/>
  <circle cx="105" cy="235" r="13" fill="none" stroke="#000" stroke-width="4"/>
  <circle cx="109" cy="231" r="5" fill="#000"/>
  <path d="M95,265 Q120,280 140,265" fill="none" stroke="#000" stroke-width="4"/>
  <!-- Title -->
  <text x="200" y="538" font-family="Arial Black, sans-serif" font-size="20"
        text-anchor="middle" fill="#000" font-weight="900">Dolphin</text>
  <text x="200" y="558" font-family="Arial, sans-serif" font-size="13"
        text-anchor="middle" fill="#555">Deep sea adventure!</text>
  <!-- KidLearn branding -->
  <text x="380" y="566" font-family="Arial, sans-serif" font-size="9"
        text-anchor="end" fill="#ccc">KidLearn</text>
</svg>