<?xml version="1.0" encoding="UTF-8"?>
<svg xmlns="http://www.w3.org/2000/svg" viewBox="0 0 400 570" width="400" height="570">
  <rect width="400" height="570" fill="white"/>
  <!-- Outer border -->
  <rect x="8" y="8" width="384" height="554" fill="none" stroke="#000" stroke-width="3" rx="16"/>
  <!-- Inner border -->
  <rect x="16" y="16" width="368" height="538" fill="none" stroke="#000" stroke-width="1.5" rx="12" stroke-dasharray="6,4"/>
  <path d="M320,215 Q360,180 380,215 Q360,250 320,215 Z" fill="none" stroke="#000" stroke-width="6"/>
  <ellipse cx="200" cy="215" rx="130" ry="70" fill="none" stroke="#000" stroke-width="8"/>
  <circle cx="255" cy="200" r="12" fill="none" stroke="#000" stroke-width="4"/>
  <circle cx="259" cy="196" r="4" fill="#000"/>
  <!-- scales -->
  <path d="M180,215 Q195,200 210,215" fill="none" stroke="#000" stroke-width="3"/>
  <path d="M160,215 Q175,200 190,215" fill="none" stroke="#000" stroke-width="3"/>
  <path d="M170,235 Q185,220 200,235" fill="none" stroke="#000" stroke-width="3"/>
  <line x1="200" y1="145" x2="200" y2="165" stroke="#000" stroke-width="5"/>
  <path d="M180,165 Q200,155 220,165" fill="none" stroke="#000" stroke-width="5"/>
  <!-- Title -->
  <text x="200" y="538" font-family="Arial Black, sans-serif" font-size="20"
        text-anchor="middle" fill="#000" font-weight="900">Tropical Fish</text>
  <text x="200" y="558" font-family="Arial, sans-serif" font-size="13"
        text-anchor="middle" fill="#555">Deep sea adventure!</text>
  <!-- KidLearn branding -->
  <text x="380" y="566" font-family="Arial, sans-serif" font-size="9"
        text-anchor="end" fill="#ccc">KidLearn</text>
</svg>