<?xml version="1.0" encoding="UTF-8"?>
<svg xmlns="http://www.w3.org/2000/svg" viewBox="0 0 400 570" width="400" height="570">
  <rect width="400" height="570" fill="white"/>
  <!-- Outer border -->
  <rect x="8" y="8" width="384" height="554" fill="none" stroke="#000" stroke-width="3" rx="16"/>
  <!-- Inner border -->
  <rect x="16" y="16" width="368" height="538" fill="none" stroke="#000" stroke-width="1.5" rx="12" stroke-dasharray="6,4"/>
  <path d="M200,100 Q240,100 250,140 Q260,180 240,200 Q260,220 255,260 Q245,310 220,350 Q200,390 195,420 Q185,390 175,350 Q155,310 145,260 Q140,220 160,200 Q140,180 150,140 Q160,100 200,100 Z" fill="none" stroke="#000" stroke-width="7"/>
  <circle cx="220" cy="120" r="12" fill="none" stroke="#000" stroke-width="4"/>
  <circle cx="224" cy="116" r="5" fill="#000"/>
  <path d="M240,160 Q270,155 275,170 Q270,185 240,180" fill="none" stroke="#000" stroke-width="5"/>
  <path d="M195,420 Q220,440 215,460" fill="none" stroke="#000" stroke-width="6" stroke-linecap="round"/>
  <!-- Title -->
  <text x="200" y="538" font-family="Arial Black, sans-serif" font-size="20"
        text-anchor="middle" fill="#000" font-weight="900">Seahorse</text>
  <text x="200" y="558" font-family="Arial, sans-serif" font-size="13"
        text-anchor="middle" fill="#555">Deep sea adventure!</text>
  <!-- KidLearn branding -->
  <text x="380" y="566" font-family="Arial, sans-serif" font-size="9"
        text-anchor="end" fill="#ccc">KidLearn</text>
</svg>