<?xml version="1.0" encoding="UTF-8"?>
<svg xmlns="http://www.w3.org/2000/svg" viewBox="0 0 400 570" width="400" height="570">
  <rect width="400" height="570" fill="white"/>
  <!-- Outer border -->
  <rect x="8" y="8" width="384" height="554" fill="none" stroke="#000" stroke-width="3" rx="16"/>
  <!-- Inner border -->
  <rect x="16" y="16" width="368" height="538" fill="none" stroke="#000" stroke-width="1.5" rx="12" stroke-dasharray="6,4"/>
  <ellipse cx="200" cy="255" rx="150" ry="70" fill="none" stroke="#000" stroke-width="8"/>
  <rect x="165" y="175" width="60" height="80" rx="8" fill="none" stroke="#000" stroke-width="6"/>
  <line x1="195" y1="175" x2="195" y2="145" stroke="#000" stroke-width="6"/>
  <circle cx="195" cy="138" r="10" fill="none" stroke="#000" stroke-width="4"/>
  <path d="M350,250 L390,240 L390,270 L350,260 Z" fill="none" stroke="#000" stroke-width="6"/>
  <circle cx="155" cy="250" r="22" fill="none" stroke="#000" stroke-width="5"/>
  <circle cx="225" cy="265" r="22" fill="none" stroke="#000" stroke-width="5"/>
  <circle cx="295" cy="250" r="18" fill="none" stroke="#000" stroke-width="5"/>
  <!-- Bubbles -->
  <circle cx="365" cy="200" r="8" fill="none" stroke="#000" stroke-width="3"/>
  <circle cx="375" cy="180" r="5" fill="none" stroke="#000" stroke-width="3"/>
  <circle cx="358" cy="165" r="4" fill="none" stroke="#000" stroke-width="3"/>
  <!-- Title -->
  <text x="200" y="538" font-family="Arial Black, sans-serif" font-size="20"
        text-anchor="middle" fill="#000" font-weight="900">Submarine</text>
  <text x="200" y="558" font-family="Arial, sans-serif" font-size="13"
        text-anchor="middle" fill="#555">Deep sea adventure!</text>
  <!-- KidLearn branding -->
  <text x="380" y="566" font-family="Arial, sans-serif" font-size="9"
        text-anchor="end" fill="#ccc">KidLearn</text>
</svg>