<?xml version="1.0" encoding="UTF-8"?>
<svg xmlns="http://www.w3.org/2000/svg" viewBox="0 0 400 570" width="400" height="570">
  <rect width="400" height="570" fill="white"/>
  <!-- Outer border -->
  <rect x="8" y="8" width="384" height="554" fill="none" stroke="#000" stroke-width="3" rx="16"/>
  <!-- Inner border -->
  <rect x="16" y="16" width="368" height="538" fill="none" stroke="#000" stroke-width="1.5" rx="12" stroke-dasharray="6,4"/>
  <path d="M60,250 Q60,150 200,150 Q340,150 340,230 Q340,300 250,310 Q200,315 150,310 Q80,305 60,250 Z" fill="none" stroke="#000" stroke-width="8"/>
  <path d="M60,255 Q30,290 25,320 Q50,310 60,275" fill="none" stroke="#000" stroke-width="7"/>
  <path d="M60,245 Q30,215 25,185 Q50,195 60,225" fill="none" stroke="#000" stroke-width="7"/>
  <circle cx="285" cy="195" r="14" fill="none" stroke="#000" stroke-width="4"/>
  <circle cx="290" cy="190" r="5" fill="#000"/>
  <path d="M160,280 Q200,295 240,280" fill="none" stroke="#000" stroke-width="4"/>
  <path d="M200,152 Q210,110 220,95" fill="none" stroke="#000" stroke-width="5" stroke-linecap="round"/>
  <!-- Title -->
  <text x="200" y="538" font-family="Arial Black, sans-serif" font-size="20"
        text-anchor="middle" fill="#000" font-weight="900">Humpback Whale</text>
  <text x="200" y="558" font-family="Arial, sans-serif" font-size="13"
        text-anchor="middle" fill="#555">Deep sea adventure!</text>
  <!-- KidLearn branding -->
  <text x="380" y="566" font-family="Arial, sans-serif" font-size="9"
        text-anchor="end" fill="#ccc">KidLearn</text>
</svg>